<svg transform="rotate(0) scale(1, 1)" preserveAspectRatio="xMidYMid meet" viewBox="127.80540540540541 1006.36 1255.827027027027 366.96000000000004" xmlns="http://www.w3.org/2000/svg" version="1.0" style="max-height: 500px" width="1255.827027027027" height="366.96000000000004">
<g stroke="none" fill="#0a1f44" transform="translate(0.000000,1390.000000) scale(0.100000,-0.100000)">
<path d="M7325 13449 c-230 -15 -579 -60 -685 -89 -19 -5 -75 -19 -125 -31&#10;-49 -11 -103 -25 -120 -30 -16 -5 -79 -23 -140 -40 -112 -31 -304 -93 -340&#10;-108 -11 -5 -63 -26 -115 -46 -197 -75 -379 -162 -488 -231 -29 -19 -55 -34&#10;-58 -34 -3 0 -25 -13 -49 -30 -24 -16 -46 -30 -49 -30 -2 0 -75 -45 -161 -101&#10;-86 -56 -163 -102 -172 -103 -8 -1 -23 -12 -32 -23 -9 -11 -34 -33 -56 -49&#10;-110 -80 -199 -160 -415 -374 -286 -282 -560 -631 -704 -895 -21 -38 -60 -106&#10;-85 -150 -56 -95 -193 -388 -252 -535 -107 -271 -238 -723 -288 -995 -55 -304&#10;-65 -436 -66 -825 0 -351 7 -471 46 -765 18 -133 55 -313 79 -385 4 -14 22&#10;-79 40 -145 79 -295 249 -713 386 -952 211 -367 361 -577 623 -873 100 -113&#10;323 -332 441 -434 255 -221 642 -477 955 -632 537 -266 916 -378 1540 -453 50&#10;-6 133 -16 185 -23 152 -19 751 -16 939 6 504 57 1004 182 1361 341 436 193&#10;856 459 1219 769 110 94 433 414 505 499 179 214 378 490 454 627 16 30 61&#10;111 99 180 186 337 296 631 423 1128 39 153 78 406 106 691 13 131 15 233 11&#10;505 -7 454 -29 645 -119 1016 -25 104 -90 323 -128 430 -23 63 -48 134 -55&#10;156 -8 23 -44 110 -80 195 -67 157 -76 197 -50 219 28 23 60 -14 127 -147 91&#10;-181 169 -384 238 -623 12 -41 26 -85 31 -98 5 -13 9 -34 9 -47 0 -13 4 -26 9&#10;-29 5 -3 11 -20 14 -38 3 -18 10 -53 16 -78 113 -507 143 -1225 70 -1710 -41&#10;-275 -135 -689 -198 -870 -105 -305 -212 -547 -353 -800 -134 -240 -197 -337&#10;-338 -515 -30 -38 -58 -74 -62 -80 -86 -115 -198 -242 -361 -409 -38 -39 -80&#10;-82 -93 -96 -33 -35 -33 -58 1 -36 13 9 38 16 55 16 20 0 30 5 30 15 0 11 -7&#10;14 -25 9 -31 -8 -32 2 -2 27 27 22 49 25 41 4 -4 -8 -1 -15 6 -15 8 0 10 9 6&#10;26 -7 27 9 58 25 48 10 -6 70 57 124 129 20 26 41 47 48 48 7 0 26 19 42 42&#10;17 23 45 49 62 57 21 10 31 20 28 30 -3 9 27 47 74 96 53 54 76 85 69 92 -6 6&#10;-1 12 15 16 16 4 26 15 30 33 3 16 19 37 36 48 17 11 31 27 31 36 0 9 9 26 20&#10;39 11 13 20 29 20 37 0 7 7 16 15 19 8 4 15 12 15 19 0 6 9 20 19 29 11 10 22&#10;29 25 42 4 14 22 47 41 74 19 27 41 64 49 83 7 19 19 38 25 41 6 4 11 16 11&#10;27 0 10 5 19 11 19 26 0 238 484 327 745 42 123 139 503 161 630 39 224 47&#10;288 67 510 2 28 7 73 9 100 3 28 7 147 9 265 4 226 -6 383 -44 665 -40 300&#10;-59 410 -90 521 -11 38 -20 83 -20 98 0 15 -9 44 -20 66 -11 22 -20 47 -20 58&#10;0 10 -4 22 -8 28 -5 5 -14 29 -21 54 -34 117 -56 181 -88 255 -20 44 -40 91&#10;-45 105 -6 14 -16 36 -23 50 -101 199 -157 284 -208 315 -15 9 -45 40 -65 68&#10;-36 49 -142 222 -142 232 0 7 -70 115 -110 170 -20 28 -67 93 -105 145 -38 52&#10;-81 109 -95 126 -14 17 -43 52 -65 80 -193 237 -420 454 -703 672 -357 274&#10;-702 481 -1047 627 -252 108 -426 174 -565 217 -312 95 -436 123 -690 158 -36&#10;4 -114 15 -175 23 -237 33 -582 43 -860 26z m250 -121 c8 -28 14 -484 6 -497&#10;-14 -22 -87 52 -124 128 -30 62 -32 73 -33 180 -1 67 -6 117 -12 119 -5 1 -19&#10;-13 -31 -32 -25 -39 -35 -42 -166 -51 -209 -15 -410 -50 -660 -115 -66 -18&#10;-133 -35 -150 -40 -50 -13 -284 -90 -370 -122 -164 -61 -193 -73 -324 -135&#10;-73 -35 -135 -63 -136 -63 -2 0 -61 -33 -132 -73 -562 -322 -848 -561 -1254&#10;-1047 -118 -140 -316 -437 -427 -640 -125 -229 -273 -575 -322 -755 -4 -16&#10;-31 -105 -59 -197 -85 -284 -127 -527 -161 -933 -13 -164 -13 -579 0 -738 18&#10;-210 40 -362 75 -517 9 -36 20 -87 26 -115 13 -61 23 -94 89 -300 67 -210 128&#10;-365 198 -500 55 -106 58 -110 87 -107 17 1 73 4 125 5 83 2 100 -1 131 -20&#10;48 -30 64 -65 64 -137 -1 -85 -31 -136 -102 -173 -29 -15 -53 -31 -53 -34 0&#10;-13 177 -269 239 -344 318 -388 587 -646 951 -908 214 -154 509 -322 790 -450&#10;111 -51 335 -149 394 -173 33 -13 75 -38 93 -56 35 -34 57 -33 74 6 18 39 2&#10;96 -37 132 -33 31 -72 44 -143 46 -28 1 -32 4 -27 22 3 12 6 27 6 34 0 19 61&#10;52 98 52 67 0 148 -63 194 -150 20 -40 23 -61 26 -194 3 -140 2 -148 -15 -143&#10;-64 20 -468 159 -513 177 -30 12 -83 35 -118 51 -35 16 -65 29 -66 29 -10 0&#10;-248 117 -336 165 -200 109 -213 117 -405 244 -420 278 -799 639 -1160 1101&#10;-70 89 -110 150 -231 348 l-26 44 24 25 c39 43 109 83 145 83 43 0 93 25 93&#10;47 0 9 -12 30 -27 45 -23 24 -35 28 -79 28 -60 0 -104 -16 -158 -59 -21 -17&#10;-46 -31 -56 -31 -24 0 -173 305 -240 490 -177 494 -234 740 -280 1230 -13 133&#10;-12 735 2 855 27 248 72 512 118 699 44 176 181 591 237 716 14 30 39 87 56&#10;125 273 616 782 1285 1262 1659 83 65 366 256 470 318 272 161 403 227 605&#10;305 403 156 771 259 1120 312 219 34 627 52 635 29z m590 -14 c443 -49 840&#10;-152 1270 -332 244 -101 391 -171 590 -282 176 -98 548 -361 702 -496 129&#10;-113 354 -337 436 -434 40 -47 74 -87 77 -90 3 -3 26 -32 51 -65 148 -195 329&#10;-505 440 -750 17 -38 51 -115 76 -170 125 -278 210 -514 269 -749 14 -56 29&#10;-117 34 -136 16 -58 48 -227 70 -362 64 -399 68 -905 10 -1363 -39 -302 -164&#10;-782 -280 -1070 -44 -110 -210 -435 -222 -435 -5 0 -42 21 -81 47 -55 36 -84&#10;47 -122 51 -62 5 -102 -10 -117 -44 -11 -23 -10 -29 10 -45 13 -10 48 -25 80&#10;-33 69 -19 135 -51 159 -78 17 -19 16 -21 -7 -66 -14 -26 -52 -87 -85 -137&#10;-33 -49 -65 -101 -72 -115 -23 -43 -184 -253 -290 -376 -123 -144 -390 -410&#10;-533 -531 -183 -155 -471 -352 -715 -488 -151 -84 -198 -110 -280 -151 -120&#10;-60 -454 -194 -585 -235 -58 -17 -142 -47 -188 -66 -46 -18 -87 -33 -92 -33&#10;-39 0 -39 243 0 344 42 109 139 178 227 161 51 -9 103 -60 103 -100 0 -18 -7&#10;-38 -15 -45 -15 -13 -35 -6 -35 12 0 19 -32 48 -52 48 -10 0 -39 -19 -63 -41&#10;-47 -44 -69 -93 -63 -144 4 -40 20 -38 138 15 52 24 104 46 115 50 11 5 36 15&#10;55 23 19 8 78 32 130 52 315 122 856 438 1130 660 99 80 335 291 405 360 173&#10;175 292 318 420 504 39 56 89 129 113 162 23 32 42 63 42 69 0 5 -18 19 -40&#10;30 -22 11 -55 36 -74 55 -30 29 -35 43 -41 99 -6 55 -4 72 14 109 40 83 152&#10;115 272 78 59 -18 61 -17 128 117 133 266 260 666 332 1052 43 230 69 526 69&#10;807 0 200 -5 289 -30 513 -54 477 -181 910 -433 1475 -143 321 -389 709 -592&#10;935 -170 189 -411 417 -568 539 -247 190 -672 439 -997 584 -132 59 -443 167&#10;-650 226 -173 49 -522 120 -665 135 -210 22 -235 28 -256 57 -11 16 -24 29&#10;-29 29 -4 0 -10 -51 -12 -112 -3 -100 -6 -120 -31 -170 -16 -32 -48 -79 -72&#10;-105 l-44 -48 -1 247 c0 218 2 249 17 263 15 15 34 16 167 10 83 -3 210 -13&#10;281 -21z m-50 -525 c98 -12 187 -27 285 -46 41 -9 86 -18 100 -20 217 -43 608&#10;-178 905 -311 214 -96 457 -239 715 -421 l171 -121 100 0 c106 0 149 -13 169&#10;-49 5 -11 10 -62 10 -114 l0 -94 53 -60 c280 -319 379 -448 516 -678 87 -145&#10;221 -400 221 -420 0 -2 11 -28 24 -57 336 -735 422 -1593 249 -2482 -38 -199&#10;-143 -502 -248 -721 -32 -66 -66 -140 -75 -165 -22 -59 -108 -212 -184 -325&#10;-33 -49 -77 -117 -99 -150 -44 -66 -141 -197 -170 -230 -10 -11 -38 -47 -62&#10;-80 -71 -99 -513 -535 -542 -535 -7 0 -13 -7 -13 -15 0 -8 -7 -15 -16 -15 -8&#10;0 -28 -15 -45 -32 -18 -20 -29 -27 -29 -18 0 8 -7 1 -16 -16 -9 -19 -35 -42&#10;-64 -58 -27 -15 -52 -31 -55 -37 -11 -17 -83 -47 -93 -37 -5 5 -18 1 -33 -9&#10;-13 -10 -36 -25 -51 -32 -16 -8 -28 -18 -28 -23 0 -4 -7 -8 -15 -8 -7 0 -18&#10;-6 -22 -13 -4 -8 -28 -21 -53 -29 -25 -9 -53 -19 -62 -23 -29 -12 -20 10 10&#10;26 15 8 29 17 32 20 3 3 37 23 75 44 77 42 128 75 133 87 2 4 15 5 28 2 18 -5&#10;23 -3 19 7 -3 8 7 23 22 34 15 11 62 47 106 80 43 33 85 65 93 70 49 32 381&#10;356 506 493 26 29 51 52 56 52 6 0 9 6 8 13 0 7 13 30 31 52 18 22 64 85 104&#10;140 40 55 84 116 98 135 28 38 141 220 141 227 0 3 8 17 19 31 30 44 151 288&#10;151 306 0 3 15 39 33 78 65 141 116 274 147 378 18 58 38 123 45 145 16 51 69&#10;316 84 420 43 312 43 829 0 1135 -97 690 -411 1395 -862 1935 -102 122 -326&#10;352 -415 428 -450 380 -778 568 -1397 804 -98 37 -356 110 -500 140 -181 39&#10;-287 53 -441 60 -150 7 -205 -3 -275 -48 -60 -38 -89 -37 -159 7 -56 35 -62&#10;36 -177 41 -329 13 -932 -124 -1348 -307 -354 -156 -589 -302 -975 -607 -65&#10;-51 -365 -359 -471 -483 -49 -57 -118 -147 -250 -325 -43 -58 -136 -202 -169&#10;-260 -74 -130 -250 -507 -250 -534 0 -8 -30 -88 -55 -146 -8 -16 -26 -66 -40&#10;-110 -15 -44 -32 -89 -37 -99 -10 -19 -11 -19 -21 0 -12 21 -10 74 4 88 5 6 9&#10;19 9 31 0 11 9 38 20 60 11 22 20 47 20 57 0 9 5 20 10 23 5 3 10 20 10 36 0&#10;21 4 28 12 23 8 -5 9 -2 5 9 -4 10 0 20 10 25 9 6 12 12 5 16 -10 6 -7 33 7&#10;71 162 413 411 834 701 1185 62 74 115 142 120 150 4 8 10 62 13 120 3 58 8&#10;113 12 122 10 26 60 38 162 38 52 0 104 5 116 11 12 7 117 78 232 159 301 211&#10;404 271 730 420 244 111 611 227 890 280 28 6 70 14 95 20 164 36 463 52 540&#10;29 21 -7 61 -29 89 -50 28 -22 59 -39 69 -39 10 0 31 13 47 30 71 75 184 90&#10;430 59z m-637 -234 c50 -22 81 -52 103 -103 25 -59 25 -126 -2 -163 -37 -52&#10;-53 -38 -80 65 -8 33 -25 62 -50 87 -65 65 -133 65 -549 -1 -159 -25 -366 -83&#10;-645 -180 -99 -35 -414 -190 -545 -268 -204 -122 -368 -236 -471 -327 -76 -67&#10;-149 -120 -167 -121 -9 -1 -28 -6 -42 -12 l-25 -11 28 0 c15 -1 27 -4 27 -7 0&#10;-14 -36 -33 -63 -34 -23 0 -27 -3 -22 -22 4 -19 -18 -47 -119 -153 -69 -71&#10;-123 -131 -121 -133 2 -2 -11 -18 -28 -36 -58 -58 -122 -139 -155 -197 -11&#10;-19 -50 -83 -87 -144 -256 -415 -334 -597 -483 -1125 -104 -367 -146 -829&#10;-111 -1237 9 -113 52 -387 78 -498 113 -489 404 -1077 746 -1505 124 -156 233&#10;-269 405 -423 311 -277 601 -460 988 -622 121 -51 142 -70 123 -111 -6 -13&#10;-19 -24 -28 -24 -46 0 -339 131 -515 230 -163 92 -433 278 -565 391 -223 190&#10;-574 593 -707 812 -174 287 -319 573 -393 777 -153 417 -210 676 -234 1055&#10;-24 397 20 816 126 1185 142 494 294 825 534 1165 39 55 94 134 123 175 48 70&#10;109 146 213 265 83 95 333 341 367 361 8 5 42 32 74 61 102 89 314 238 474&#10;333 373 220 831 391 1260 469 186 34 228 39 368 40 99 1 142 -3 170 -14z m665&#10;5 c467 -68 828 -182 1262 -400 453 -227 834 -522 1184 -915 182 -205 228 -268&#10;357 -482 119 -198 122 -203 160 -283 20 -41 60 -124 89 -185 65 -136 182 -457&#10;205 -565 4 -19 19 -78 33 -130 60 -223 92 -562 83 -895 -17 -695 -166 -1230&#10;-501 -1810 -231 -398 -515 -743 -835 -1011 -175 -147 -482 -355 -664 -449&#10;-145 -76 -413 -187 -441 -183 -26 4 -44 63 -24 82 8 8 64 32 124 56 630 240&#10;1232 738 1631 1350 204 314 293 482 376 715 88 245 100 281 128 398 117 483&#10;142 997 74 1507 -35 264 -145 630 -266 890 -25 52 -58 124 -74 159 -48 108&#10;-232 405 -353 569 -147 202 -359 429 -511 551 -52 41 -122 98 -155 126 -249&#10;210 -703 473 -1005 585 -461 169 -763 241 -1027 244 -125 1 -132 0 -156 -23&#10;-26 -24 -58 -93 -77 -168 -7 -30 -15 -41 -25 -37 -52 20 -65 143 -21 211 27&#10;44 49 64 91 86 36 19 225 23 338 7z m-268 -400 c219 -15 394 -40 530 -76 205&#10;-53 319 -90 485 -156 237 -94 476 -220 684 -361 58 -39 225 -164 236 -177 3&#10;-3 50 -41 105 -85 215 -172 418 -394 607 -665 112 -160 283 -472 348 -635 55&#10;-138 157 -470 173 -560 3 -16 10 -57 16 -90 43 -225 55 -659 26 -900 -34 -280&#10;-40 -321 -57 -341 -6 -9 -84 -10 -281 -6 -244 4 -277 3 -309 -12 -77 -37 -69&#10;-114 16 -155 42 -19 62 -21 264 -21 241 0 262 -5 262 -59 0 -86 -185 -516&#10;-312 -727 -78 -127 -236 -366 -301 -452 -145 -194 -464 -495 -714 -674 -148&#10;-106 -566 -327 -596 -315 -7 2 -23 44 -36 93 -48 176 -119 320 -221 449 -38&#10;50 -97 125 -129 167 -32 42 -62 74 -65 71 -3 -4 -6 -28 -6 -55 0 -26 -3 -48&#10;-6 -48 -3 0 -26 14 -51 30 -24 17 -46 30 -49 30 -3 0 -41 27 -86 61 -44 33&#10;-88 63 -97 67 -9 3 -42 23 -73 44 -31 21 -66 38 -77 38 -11 0 -35 9 -53 19&#10;-18 11 -51 23 -73 27 -22 4 -49 13 -60 20 -11 6 -40 15 -65 19 -25 3 -54 10&#10;-65 15 -34 16 -302 25 -485 18 -349 -15 -690 -19 -690 -8 0 22 -19 8 -23 -17&#10;-3 -16 -4 1 -3 37 l1 65 140 6 c77 4 514 7 972 8 952 1 853 12 853 -97 0 -47&#10;4 -62 18 -68 9 -4 163 -11 342 -14 339 -5 357 -8 380 -50 7 -12 11 -107 10&#10;-250 l0 -230 31 -35 c35 -40 79 -47 115 -17 44 35 47 56 46 267 -1 240 2 262&#10;48 293 34 22 41 23 200 21 l166 -3 47 33 c26 17 47 38 47 46 0 7 3 20 6 28 3&#10;8 -6 27 -20 43 l-24 29 -619 5 -618 5 -17 54 c-30 91 -55 108 -182 122 -43 4&#10;-80 10 -83 13 -3 2 -5 48 -6 101 -2 94 -3 98 -31 122 -26 22 -36 25 -84 20&#10;-30 -3 -65 -2 -78 3 -24 9 -24 11 -24 149 0 106 -3 140 -13 144 -8 3 -43 8&#10;-80 12 -36 4 -68 12 -70 19 -2 6 0 63 5 126 4 63 6 124 3 136 -3 15 -22 27&#10;-64 43 -49 18 -61 27 -70 53 -7 19 -11 123 -11 269 0 237 0 238 24 266 l24 28&#10;1412 1 1412 1 24 25 c37 37 47 121 40 348 -9 301 -37 474 -126 770 -64 216&#10;-113 328 -260 605 -62 118 -85 152 -200 308 -216 292 -331 413 -585 618 -217&#10;174 -368 272 -635 412 -362 188 -719 297 -1138 348 -122 14 -522 14 -637 -1&#10;-352 -45 -748 -150 -994 -262 -392 -178 -708 -396 -1020 -702 -158 -155 -263&#10;-283 -410 -501 -127 -190 -140 -212 -236 -403 -202 -405 -293 -775 -311 -1264&#10;-6 -161 -5 -193 9 -230 31 -79 -101 -73 1469 -71 893 2 1417 -1 1433 -7 l25&#10;-10 -2 -297 -3 -298 -40 -6 c-51 -7 -82 -24 -90 -50 -4 -11 -4 -67 0 -123 10&#10;-142 8 -146 -66 -146 -50 0 -64 -4 -84 -25 -24 -23 -25 -29 -25 -160 l0 -135&#10;-74 0 c-65 0 -79 -3 -103 -24 -23 -20 -28 -33 -29 -73 0 -26 -2 -72 -2 -100&#10;l-2 -53 -87 -1 c-49 0 -104 -5 -123 -12 -40 -14 -72 -62 -72 -111 0 -18 -3&#10;-39 -8 -45 -6 -10 -144 -12 -622 -11 -611 1 -614 1 -641 -20 -17 -14 -27 -31&#10;-27 -48 0 -35 6 -42 62 -80 l47 -32 168 0 c253 0 253 0 253 -304 0 -204 6&#10;-236 55 -274 38 -30 76 -28 108 6 l27 29 -2 229 c-2 258 -1 265 65 295 38 17&#10;69 19 324 19 159 0 293 -4 307 -10 23 -8 26 -15 26 -58 0 -45 -23 -122 -53&#10;-179 -13 -24 -35 -52 -130 -166 -35 -42 -87 -123 -119 -184 -51 -100 -73 -158&#10;-114 -305 -8 -32 -19 -58 -24 -58 -14 0 -165 67 -267 118 -201 101 -381 223&#10;-603 410 -182 152 -414 413 -572 642 -172 249 -338 580 -434 863 -28 82 -31&#10;102 -22 123 23 49 49 54 280 54 195 0 216 2 246 20 40 24 67 78 58 114 -13 52&#10;-38 56 -357 56 -160 -1 -293 1 -295 3 -6 6 -20 95 -40 247 -23 174 -22 557 1&#10;750 72 613 299 1165 693 1684 316 416 759 782 1232 1020 453 227 925 335 1550&#10;354 30 1 123 -3 205 -8z m-140 -362 c54 -27 73 -46 97 -92 28 -54 20 -117 -18&#10;-157 -27 -28 -54 -38 -54 -21 0 16 -94 76 -119 76 -19 1 -34 13 -58 51 -18 28&#10;-43 52 -56 55 -33 8 -32 41 2 74 51 49 127 55 206 14z m-808 -490 c77 -156 73&#10;-258 -15 -425 -12 -24 -27 -43 -32 -43 -24 0 -103 158 -98 194 3 19 10 21 83&#10;21 l80 0 -2 37 c-4 75 -61 150 -77 101 -3 -10 -21 -36 -41 -58 l-35 -40 0 29&#10;c0 32 13 78 42 143 10 24 18 48 18 54 0 19 20 49 33 49 7 0 27 -28 44 -62z&#10;m1536 -10 c74 -151 76 -244 6 -382 -23 -47 -48 -86 -53 -86 -6 0 -29 37 -50&#10;83 -32 68 -39 96 -44 165 -3 56 0 92 8 110 7 15 16 36 20 47 43 110 55 135 66&#10;135 6 0 28 -33 47 -72z m-507 17 c17 -23 11 -61 -14 -88 -15 -17 -17 -17 -29&#10;-1 -11 15 -44 18 -275 25 -145 4 -271 11 -280 14 -21 8 -24 38 -5 53 23 18 51&#10;20 320 19 256 -2 269 -3 283 -22z m-24 -352 c67 -67 72 -90 26 -126 -18 -14&#10;-54 -45 -79 -69 -25 -24 -63 -58 -85 -74 -21 -16 -45 -37 -52 -46 -7 -10 -20&#10;-18 -28 -18 -8 0 -14 -4 -14 -10 0 -15 -42 -50 -60 -50 -8 0 -31 18 -50 41&#10;-19 23 -57 64 -85 93 -107 111 -185 196 -185 202 0 17 72 92 94 98 37 9 57 -3&#10;145 -86 44 -43 85 -78 90 -78 6 0 52 41 102 90 50 50 99 90 108 90 8 0 41 -26&#10;73 -57z m-1972 -189 c36 -15 110 -63 165 -104 190 -144 255 -183 362 -218 129&#10;-43 251 -28 404 47 116 58 185 103 264 170 59 51 94 69 114 57 23 -14 101&#10;-145 95 -159 -6 -16 -150 -132 -189 -153 -11 -6 -29 -16 -40 -22 -90 -51 -223&#10;-91 -236 -70 -9 14 -117 26 -244 27 -168 2 -325 66 -525 214 -30 22 -75 56&#10;-100 74 -25 18 -49 36 -55 40 -11 8 -42 23 -88 42 -84 34 -178 -1 -205 -75&#10;-15 -40 -10 -61 36 -146 8 -16 -36 5 -66 31 -36 32 -62 86 -62 129 0 45 39 94&#10;100 125 49 26 63 28 130 25 55 -3 93 -12 140 -34z m3705 9 c46 -24 76 -61 94&#10;-115 25 -77 -29 -173 -85 -151 -12 4 -15 15 -11 42 5 44 -21 101 -57 124 -50&#10;33 -105 16 -176 -55 -87 -88 -237 -202 -313 -239 -45 -21 -86 -44 -91 -49 -13&#10;-13 -39 -13 -31 0 3 6 1 10 -4 10 -6 0 -11 -9 -11 -19 0 -12 -10 -21 -27 -26&#10;-16 -3 -41 -13 -58 -20 -53 -24 -97 -29 -260 -29 -150 0 -165 1 -240 27 -77&#10;28 -215 92 -225 106 -3 4 -21 18 -40 31 -19 13 -41 32 -48 42 -7 10 -19 18&#10;-25 18 -18 0 -137 109 -137 125 0 21 42 56 58 50 12 -4 13 2 9 30 -7 44 14 69&#10;52 60 14 -4 57 -32 96 -63 139 -112 155 -123 227 -165 104 -62 176 -86 276&#10;-93 152 -11 297 44 484 183 234 174 298 204 423 200 57 -3 92 -10 120 -24z&#10;m-1981 -329 c13 -13 16 -42 16 -157 0 -78 -4 -148 -9 -156 -6 -10 -19 -12 -44&#10;-7 -31 6 -35 10 -40 46 -10 75 1 241 18 266 18 28 37 30 59 8z m-1761 -81 c19&#10;-32 70 -125 113 -208 42 -82 96 -184 118 -225 59 -107 196 -387 196 -400 0 -5&#10;-9 -10 -20 -10 -14 0 -35 23 -70 78 -27 42 -53 82 -58 87 -18 24 -56 92 -152&#10;280 -230 446 -222 429 -203 443 29 21 40 14 76 -45z m3572 38 c3 -11 -7 -51&#10;-24 -92 -31 -78 -164 -360 -233 -494 -22 -44 -56 -111 -76 -150 -42 -85 -39&#10;-82 -57 -64 -13 12 -13 20 0 63 8 27 12 59 9 71 -3 13 -1 26 5 29 6 4 11 2 11&#10;-3 0 -6 5 -11 11 -11 7 0 9 10 5 25 -4 14 -2 25 3 25 16 0 51 65 51 94 0 15 4&#10;25 9 21 6 -3 7 9 4 30 -4 23 -2 35 6 35 6 0 11 7 11 15 0 15 19 54 31 65 3 3&#10;36 68 74 145 38 77 79 157 92 178 25 40 58 49 68 18z m316 -263 c73 -145 172&#10;-343 221 -440 49 -98 87 -182 83 -187 -11 -18 -63 9 -75 40 -7 16 -18 29 -26&#10;29 -7 0 -16 10 -20 23 -4 12 -24 48 -45 79 -22 31 -39 60 -39 65 0 15 -251&#10;522 -278 561 -32 47 -33 51 -12 72 45 45 51 37 191 -242z m-4103 226 c4 -25&#10;-47 -142 -155 -359 -152 -304 -204 -397 -211 -376 -6 18 35 127 89 238 27 55&#10;49 106 49 112 0 6 4 19 9 29 5 9 24 51 41 92 18 41 39 89 46 105 8 17 23 59&#10;34 94 11 35 25 70 32 78 17 21 62 12 66 -13z m2219 -336 c19 -16 16 -75 -4&#10;-87 -13 -7 -20 -5 -29 7 -11 15 -46 18 -251 24 -131 4 -248 8 -261 8 -26 0&#10;-40 26 -24 42 19 19 83 23 322 20 147 -2 239 -7 247 -14z m11 -193 c21 -7 14&#10;-53 -11 -69 -19 -13 -52 -14 -227 -6 -248 12 -314 18 -337 36 -52 38 66 52&#10;392 46 94 -1 176 -5 183 -7z m-1052 -66 c8 -6 14 -27 14 -47 0 -73 -75 -108&#10;-125 -57 -32 31 -32 69 1 102 21 21 32 24 61 20 19 -3 41 -11 49 -18z m1615&#10;-8 c32 -32 35 -47 17 -85 -7 -17 -22 -28 -44 -32 -44 -8 -60 -1 -83 37 -15 25&#10;-17 38 -10 58 22 57 74 67 120 22z m-4764 -113 c-3 -18 -11 -53 -17 -78 -6&#10;-25 -15 -67 -20 -95 -5 -27 -14 -75 -20 -105 -17 -85 -32 -207 -37 -297 -2&#10;-46 -9 -83 -14 -83 -9 0 -4 187 7 280 18 147 83 410 101 410 3 0 3 -15 0 -32z&#10;m3851 -10 c8 -8 12 -51 12 -129 0 -128 -9 -151 -49 -129 -20 10 -21 20 -21&#10;135 0 122 2 132 36 134 5 1 15 -4 22 -11z m180 -122 c1 -71 -1 -133 -5 -137&#10;-5 -5 -25 -4 -46 2 l-37 10 0 117 c0 130 6 145 55 140 l30 -3 3 -129z m-1217&#10;-113 c21 -21 -68 -253 -118 -305 -30 -32 -46 -36 -36 -11 5 14 1 13 -23 -6&#10;-24 -19 -30 -20 -38 -8 -7 12 -13 12 -35 1 -14 -7 -37 -15 -51 -19 -24 -6 -25&#10;-4 -26 43 0 34 -7 59 -23 80 -12 18 -18 32 -12 32 6 0 11 5 11 10 0 6 -12 10&#10;-26 10 -19 0 -25 -4 -21 -15 4 -8 2 -17 -3 -20 -5 -3 -7 -12 -3 -20 3 -8 0&#10;-15 -6 -15 -11 0 -15 13 -12 38 1 6 -7 12 -19 12 -16 0 -20 6 -20 29 0 34 -2&#10;36 -47 46 -29 6 -33 4 -33 -15 0 -18 -5 -21 -32 -18 -22 2 -34 9 -36 20 -2 12&#10;1 16 11 12 8 -3 18 0 22 6 9 14 6 17 -28 25 -22 6 -26 4 -21 -9 4 -11 1 -16&#10;-10 -16 -9 0 -16 6 -16 13 0 10 -17 14 -64 14 -36 -1 -63 -3 -61 -6 1 -3 -12&#10;-7 -31 -8 -19 -1 -32 3 -29 8 4 5 -82 9 -216 9 -275 0 -389 13 -420 46 -12 13&#10;-19 27 -15 31 21 21 1466 27 1487 6z m3742 0 c19 -11 -12 -127 -63 -236 -26&#10;-55 -115 -157 -136 -157 -8 0 -14 -4 -14 -10 0 -12 -60 -42 -115 -58 -102 -30&#10;-225 -62 -239 -62 -10 0 -13 6 -10 15 4 8 17 15 31 15 20 0 23 4 18 20 -5 15&#10;-2 20 14 20 11 0 23 5 26 10 3 6 16 10 28 11 l22 0 -23 9 c-23 10 -35 7 -90&#10;-17 -67 -30 -174 -45 -272 -40 -164 10 -304 75 -405 189 -64 73 -106 158 -77&#10;158 4 0 51 -43 104 -95 121 -116 215 -167 354 -192 82 -15 98 -15 170 -1 72&#10;15 191 53 222 71 15 10 16 57 1 57 -6 0 -36 -8 -67 -17 -72 -21 -278 -24 -337&#10;-5 -121 40 -218 93 -195 107 6 4 8 11 4 16 -4 6 -11 6 -19 -1 -9 -8 -15 -8&#10;-20 0 -3 6 -10 8 -15 5 -5 -3 -12 0 -17 8 -4 7 -20 18 -35 24 -16 7 -28 20&#10;-28 29 0 8 -6 14 -12 11 -7 -2 -21 2 -30 11 -11 9 -46 17 -95 20 -78 5 -136&#10;25 -163 57 -22 26 -1 34 105 38 128 5 1368 -4 1378 -10z m-2395 -122 c73 -7&#10;92 -17 92 -52 0 -9 -8 -27 -19 -40 l-18 -23 -29 19 c-26 18 -55 20 -304 26&#10;-151 4 -276 7 -277 8 -12 5 2 43 19 55 19 13 59 16 243 15 121 0 253 -4 293&#10;-8z m-2564 -98 c52 -58 153 -128 232 -161 128 -54 370 -45 491 16 50 26 53 26&#10;53 7 0 -8 -4 -15 -9 -15 -5 0 -16 -6 -23 -12 -21 -21 -89 -54 -148 -74 -103&#10;-34 -303 -17 -408 34 -112 56 -169 101 -222 178 -35 50 -51 101 -28 88 9 -5&#10;37 -32 62 -61z m2254 -115 c9 -9 12 -132 12 -492 1 -500 2 -516 42 -516 35 0&#10;38 41 38 524 0 532 -3 510 68 487 26 -9 45 -9 63 -3 56 22 54 42 54 -575 0&#10;-369 -4 -570 -10 -573 -5 -3 -11 7 -13 23 -3 25 -11 31 -38 28 -6 -1 -17 6&#10;-24 14 -10 12 -10 15 4 15 18 0 22 15 6 25 -5 3 -7 12 -4 19 3 8 0 17 -7 22&#10;-7 4 -15 2 -17 -5 -11 -32 -77 -81 -109 -81 -29 0 -81 37 -96 67 -12 23 -15&#10;124 -20 518 -3 270 -3 496 0 503 6 15 35 16 51 0z m-3005 -89 c25 -11 47 -47&#10;47 -75 0 -20 -54 -74 -73 -74 -9 0 -29 12 -46 26 -41 34 -43 83 -5 113 30 24&#10;43 26 77 10z m227 -4 c33 -17 45 -45 35 -83 -16 -64 -99 -72 -130 -12 -18 35&#10;-4 82 28 98 30 14 34 14 67 -3z m2108 -67 c3 -39 -1 -49 -20 -62 -31 -22 -60&#10;-20 -92 5 -44 35 -34 102 18 124 27 12 35 11 61 -4 26 -14 30 -24 33 -63z&#10;m3605 70 c51 -27 65 -94 25 -122 -79 -55 -176 54 -102 113 30 24 46 26 77 9z&#10;m251 -14 c46 -46 29 -103 -36 -119 -44 -11 -97 27 -98 71 0 30 47 74 80 74 16&#10;0 38 -11 54 -26z m-2291 -16 c24 -28 21 -65 -8 -93 -42 -43 -107 -24 -120 34&#10;-16 76 77 119 128 59z m-485 -1170 c7 -7 12 -43 12 -90 0 -72 -1 -78 -21 -78&#10;-14 0 -24 10 -31 28 l-11 29 -104 -2 c-108 -2 -132 -8 -92 -24 21 -8 17 -10&#10;-23 -10 -38 -1 -46 2 -42 14 4 8 12 15 20 15 8 0 14 4 14 9 0 6 -54 8 -131 6&#10;-89 -2 -138 0 -152 8 -15 9 -21 9 -24 0 -3 -7 -9 -13 -14 -13 -5 0 -8 6 -6 13&#10;1 7 -8 11 -26 10 -15 -1 -25 2 -22 8 4 5 -1 9 -9 9 -8 0 -28 11 -43 25 -27 24&#10;-28 25 -9 40 17 13 73 15 361 15 252 0 344 -3 353 -12z m-4167 -273 c2 -11 16&#10;-44 32 -74 15 -29 27 -57 27 -62 0 -5 17 -46 38 -92 21 -45 52 -111 67 -147&#10;16 -36 39 -83 51 -105 12 -22 49 -94 84 -160 34 -66 71 -132 81 -147 11 -14&#10;19 -29 19 -33 0 -6 116 -176 244 -359 133 -191 454 -514 676 -681 36 -27 82&#10;-61 102 -77 20 -15 40 -28 43 -28 4 0 24 -13 44 -28 20 -16 58 -42 84 -58 27&#10;-16 61 -36 75 -45 75 -46 160 -91 272 -146 162 -79 171 -82 328 -141 74 -28&#10;136 -53 139 -56 3 -3 3 -12 0 -20 -5 -13 -19 -11 -89 13 -185 63 -436 182&#10;-556 262 -24 16 -45 29 -48 29 -5 0 -266 171 -274 180 -3 3 -17 11 -32 19 -16&#10;8 -28 18 -28 23 0 4 -5 8 -10 8 -6 0 -36 20 -68 45 -31 25 -62 49 -67 53 -6 4&#10;-32 23 -59 42 -204 147 -469 433 -616 665 -25 39 -61 92 -81 118 -62 83 -296&#10;498 -314 557 -4 14 -18 45 -31 70 -51 99 -164 395 -164 430 1 19 27 -27 31&#10;-55z m4329 -75 c18 -10 19 -18 15 -87 -3 -42 -7 -79 -10 -81 -8 -9 -45 30 -45&#10;48 0 36 -35 39 -515 45 -305 4 -474 10 -482 17 -30 24 -10 61 37 71 48 11 979&#10;-2 1000 -13z m218 -313 c8 -6 12 -25 10 -46 l-3 -36 -375 5 c-206 2 -397 5&#10;-425 5 -47 2 -407 4 -485 4 -76 -1 -110 3 -110 13 0 6 -15 7 -37 4 -34 -6 -39&#10;-4 -49 18 -15 32 -6 44 36 48 19 2 348 1 730 0 475 -3 699 -7 708 -15z m-530&#10;-602 c170 -36 291 -94 437 -212 120 -97 200 -185 280 -308 78 -121 108 -211&#10;121 -363 7 -79 6 -82 -15 -82 -11 0 -21 4 -21 10 0 5 -9 14 -20 20 -29 15&#10;-188 41 -233 38 -27 -2 -42 2 -47 12 -4 8 -15 70 -24 138 -10 68 -24 145 -33&#10;172 -9 27 -13 56 -10 64 7 18 47 20 137 6 75 -11 92 4 55 48 -21 25 -36 32&#10;-83 38 -31 3 -65 13 -74 21 -9 8 -46 34 -81 57 -35 22 -105 69 -156 104 -79&#10;53 -100 62 -137 62 -57 0 -58 -20 -5 -75 21 -22 43 -55 50 -74 10 -31 9 -35&#10;-23 -67 -25 -25 -43 -34 -68 -34 -49 0 -65 16 -93 94 -26 71 -71 151 -103 179&#10;-37 34 -102 29 -74 -6 27 -33 62 -110 81 -180 11 -42 21 -81 21 -86 0 -7 -140&#10;-4 -167 4 -10 3 -8 18 8 57 43 108 54 195 24 204 -17 6 -98 -150 -129 -248 -6&#10;-21 -38 -23 -69 -6 -33 18 -128 37 -159 31 -25 -5 -28 -2 -28 20 0 14 4 28 9&#10;31 11 7 51 88 51 103 0 6 -7 16 -15 23 -22 18 -75 4 -115 -31 -19 -17 -53 -39&#10;-75 -49 -22 -10 -48 -27 -57 -39 -20 -23 -58 -29 -58 -8 0 7 6 19 13 26 10 11&#10;7 12 -13 6 -61 -18 -92 -36 -107 -63 -18 -32 -53 -59 -53 -42 0 5 5 10 10 10&#10;6 0 10 7 10 15 0 8 4 15 8 15 4 0 16 13 25 29 31 52 118 141 180 183 105 72&#10;235 124 382 153 89 19 355 18 443 0z m-854 -494 c3 -5 -1 -28 -9 -52 -8 -24&#10;-23 -113 -33 -197 -10 -83 -22 -155 -26 -160 -4 -4 -14 2 -22 13 -17 23 -13&#10;117 12 259 17 96 11 103 -60 75 -28 -10 -52 -19 -53 -19 -2 0 -3 -7 -3 -15 0&#10;-17 -16 -20 -25 -5 -13 21 27 56 92 82 70 27 118 35 127 19z m1165 -20 c27&#10;-50 53 -174 58 -280 l6 -114 -29 7 c-16 4 -80 12 -142 17 -62 4 -121 13 -133&#10;19 -28 16 -20 44 16 51 l30 7 -32 1 c-17 0 -34 5 -37 9 -3 5 -6 53 -7 106 -2&#10;74 -7 106 -21 133 -30 55 -17 60 164 62 105 1 118 -1 127 -18z m-716 -8 c4 -2&#10;5 -8 3 -12 -11 -17 -36 -206 -36 -269 0 -71 -10 -92 -43 -92 -17 0 -18 9 -17&#10;133 1 72 1 139 1 148 -1 16 -50 30 -153 45 -34 4 -49 11 -53 25 -12 38 1 41&#10;149 34 77 -4 144 -9 149 -12z m315 -10 c10 -19 22 -328 15 -350 -7 -21 -30&#10;-15 -51 14 -18 24 -23 26 -43 15 -13 -6 -52 -11 -87 -10 l-62 2 1 167 c0 92 3&#10;170 6 173 4 3 53 6 109 6 88 0 105 -3 112 -17z m8 -451 c12 -8 3 -343 -11&#10;-374 -17 -42 -32 -13 -37 72 -3 38 -7 47 -37 64 -28 16 -37 17 -53 7 -17 -10&#10;-22 -9 -34 6 -7 10 -14 22 -14 27 0 4 -11 6 -25 4 -14 -3 -25 -1 -25 5 0 6 16&#10;7 43 2 23 -4 49 -8 57 -10 8 -1 23 -6 33 -10 21 -9 47 11 47 36 0 20 -3 20&#10;-125 22 -46 0 -50 2 -52 26 -2 24 1 26 35 25 30 -1 36 -5 34 -20 -2 -18 -2&#10;-18 12 0 22 27 11 36 -40 36 -25 0 -44 5 -44 11 0 6 -10 19 -22 29 -13 10 -19&#10;22 -15 27 5 4 63 11 130 14 67 3 124 6 127 7 3 1 10 -2 16 -6z m-358 -204 c2&#10;-183 -3 -229 -23 -180 -18 44 -35 155 -35 228 0 65 -3 83 -16 88 -9 3 -78 6&#10;-155 6 -114 0 -139 3 -139 14 0 8 6 18 13 23 13 8 208 21 297 19 l55 -1 3&#10;-197z m810 190 c19 -24 -23 -373 -49 -404 -30 -36 -35 14 -13 134 6 29 4 32&#10;-20 32 -15 0 -42 7 -61 14 -45 19 -45 6 0 -18 65 -35 33 -45 -60 -19 -42 11&#10;-71 30 -62 39 4 5 17 2 29 -5 26 -16 48 0 29 22 -16 20 10 30 54 21 18 -3 35&#10;-1 39 4 3 6 -12 13 -36 17 -48 8 -98 31 -98 45 0 14 18 21 25 10 5 -8 11 -7&#10;21 1 11 9 15 8 19 -2 6 -16 71 -23 80 -9 4 6 -7 10 -24 10 -17 0 -31 5 -31 10&#10;0 6 12 10 26 10 14 0 23 4 19 10 -3 6 -41 10 -83 11 -109 1 -126 8 -130 47&#10;l-3 32 159 0 c116 0 162 -3 170 -12z m268 -24 c54 -9 119 -19 144 -23 63 -10&#10;73 -18 66 -55 -18 -97 -39 -170 -70 -241 -48 -109 -56 -117 -109 -109 -85 12&#10;-179 34 -191 43 -8 7 -9 38 -3 113 5 57 10 144 11 193 2 50 4 91 5 93 3 6 55&#10;1 147 -14z m-1545 -71 c0 -43 4 -116 9 -163 4 -47 4 -91 0 -99 -7 -13 -20 34&#10;-61 232 -12 57 -12 57 -49 57 -21 0 -59 -4 -86 -9 -73 -14 -157 -16 -161 -5&#10;-3 9 28 17 187 44 80 14 102 17 133 19 l27 1 1 -77z m1828 -197 c6 -8 14 -36&#10;17 -62 11 -97 -67 -298 -183 -471 -201 -300 -657 -516 -1033 -488 -211 16&#10;-354 53 -515 135 -121 62 -179 103 -289 210 -168 162 -295 397 -296 547 0 43&#10;9 57 32 48 14 -6 18 -13 62 -129 44 -112 108 -220 190 -321 72 -88 80 -96 146&#10;-150 135 -110 280 -180 459 -221 140 -32 351 -33 484 -4 267 59 479 185 641&#10;379 97 116 175 274 215 430 26 106 43 129 70 97z m-1034 -186 c8 -12 -40 -211&#10;-59 -248 l-14 -27 -7 28 c-4 15 -4 40 0 55 4 15 9 52 12 83 l5 57 -54 7 c-77&#10;9 -111 24 -97 41 14 17 204 20 214 4z m-295 -47 c6 -27 16 -58 21 -71 5 -13 9&#10;-30 9 -39 0 -27 72 -196 102 -241 22 -32 27 -47 19 -55 -8 -8 -21 0 -48 29&#10;-47 49 -95 139 -131 242 -15 42 -37 90 -49 106 -22 27 -28 29 -125 35 l-103 7&#10;75 13 c41 7 82 14 90 16 8 1 40 3 71 4 l56 1 13 -47z m632 30 c50 -14 30 -28&#10;-35 -25 -73 4 -79 -1 -126 -95 -17 -34 -35 -65 -41 -68 -5 -3 -10 -15 -10 -27&#10;0 -18 -2 -19 -16 -7 -15 12 -16 11 -10 -8 6 -18 4 -21 -14 -16 -17 4 -20 11&#10;-15 27 14 47 45 192 44 206 -1 8 -1 19 0 24 1 10 180 1 223 -11z m-1089 -137&#10;c107 -133 215 -198 441 -266 105 -32 99 -48 -9 -25 -142 29 -232 72 -368 174&#10;-57 42 -167 172 -167 196 0 33 32 8 103 -79z m1418 64 c10 -6 19 -14 19 -19 0&#10;-12 -258 -195 -318 -225 -56 -28 -94 -36 -70 -13 8 6 25 18 38 26 45 25 146&#10;115 181 161 19 24 42 52 52 62 19 20 68 24 98 8z"/>
<path d="M9730 8224 c-6 -14 -10 -27 -10 -30 0 -2 -39 -64 -87 -137 -48 -72&#10;-89 -134 -90 -136 -3 -4 -121 14 -158 25 -17 4 -28 -8 -65 -68 l-45 -73 1&#10;-105 c1 -95 4 -111 32 -173 59 -128 142 -199 272 -232 220 -57 423 84 446 307&#10;7 66 1 118 -14 118 -4 0 -13 -12 -20 -27 -11 -26 -100 -93 -122 -93 -6 0 -10&#10;7 -8 16 2 9 -12 24 -37 38 -22 13 -42 31 -44 41 -2 11 -21 53 -43 93 -48 91&#10;-48 95 28 258 13 28 24 66 24 85 0 33 -33 119 -45 119 -3 0 -10 -12 -15 -26z&#10;m-197 -388 c112 -40 175 -146 150 -252 -13 -58 -30 -53 -62 20 -17 38 -48 82&#10;-73 106 -44 43 -133 90 -169 90 -27 0 -20 21 12 37 31 16 94 16 142 -1z"/>
<path d="M5265 8188 c-2 -7 -8 -152 -14 -323 -10 -268 -9 -317 3 -360 54 -178&#10;228 -280 396 -231 156 46 305 229 345 424 17 83 20 258 5 267 -5 3 -16 3 -22&#10;-2 -7 -4 -67 -8 -133 -8 -86 0 -137 -5 -180 -18 -128 -38 -205 -129 -205 -242&#10;0 -60 -9 -67 -47 -40 -31 22 -41 67 -93 410 -6 39 -13 85 -16 103 -5 32 -31&#10;45 -39 20z m630 -334 c55 -26 76 -128 35 -172 -28 -29 -42 -28 -34 3 9 36 -17&#10;70 -72 94 -72 32 -141 25 -206 -21 -23 -17 -34 -3 -20 26 32 71 209 112 297&#10;70z"/>
<path d="M6556 8169 c-81 -23 -118 -115 -79 -196 22 -47 66 -73 125 -73 41 0&#10;52 5 88 38 37 36 40 43 40 94 0 41 -5 62 -21 82 -36 46 -102 70 -153 55z"/>
<path d="M8614 8160 c-59 -24 -86 -105 -59 -175 22 -60 59 -85 124 -85 46 0&#10;55 4 91 40 37 37 40 44 40 94 0 38 -6 60 -20 78 -38 49 -120 71 -176 48z"/>
<path d="M3853 12963 c-31 -6 -46 -29 -39 -57 4 -17 25 -35 67 -57 63 -34 69&#10;-41 120 -123 38 -62 52 -51 56 42 3 54 -1 75 -20 112 -34 68 -104 99 -184 83z"/>
<path d="M11328 12938 c-57 -33 -80 -87 -76 -183 l3 -79 47 70 c54 80 79 105&#10;131 129 43 20 48 46 15 69 -31 22 -76 20 -120 -6z"/>
<path d="M11508 12780 c-63 -34 -122 -133 -135 -226 -6 -48 6 -61 39 -40 13 8&#10;50 30 83 48 89 49 90 50 119 92 30 45 33 85 9 115 -26 30 -71 35 -115 11z"/>
<path d="M3666 12768 c-9 -12 -16 -33 -16 -46 0 -34 36 -98 67 -120 54 -38&#10;187 -103 200 -98 41 16 -14 175 -82 234 -65 58 -141 71 -169 30z"/>
<path d="M3480 12600 c-28 -52 37 -133 117 -146 74 -11 148 14 96 33 -10 4&#10;-48 35 -86 70 -72 68 -107 79 -127 43z"/>
<path d="M11719 12585 c-19 -19 -56 -55 -84 -80 l-50 -44 59 -1 c107 0 191 75&#10;151 137 -21 31 -36 29 -76 -12z"/>
<path d="M4006 12113 c-71 -65 -125 -122 -122 -129 3 -8 -1 -11 -9 -8 -10 4&#10;-12 -1 -8 -18 3 -17 2 -19 -5 -9 -12 17 -19 11 -67 -54 -17 -22 -46 -56 -65&#10;-75 -20 -19 -47 -51 -60 -70 -13 -19 -27 -37 -30 -40 -37 -32 -210 -287 -295&#10;-435 -64 -112 -239 -453 -272 -530 -151 -356 -282 -783 -342 -1120 -6 -33 -20&#10;-112 -32 -175 -44 -240 -55 -416 -53 -850 1 -344 19 -517 96 -910 54 -281 68&#10;-338 137 -545 82 -247 92 -273 156 -415 185 -410 398 -757 665 -1085 35 -44&#10;67 -82 70 -85 3 -3 50 -54 105 -115 133 -146 270 -284 380 -381 50 -43 92 -81&#10;95 -85 15 -16 214 -169 342 -262 122 -88 320 -217 334 -217 3 0 21 -11 42 -23&#10;139 -88 470 -250 647 -316 33 -13 71 -28 85 -33 237 -99 408 -147 780 -222&#10;244 -49 423 -74 666 -91 512 -36 1072 1 1524 102 63 14 131 29 150 33 95 20&#10;313 85 465 138 204 71 328 123 495 208 256 130 421 226 625 366 205 140 280&#10;198 449 348 152 134 536 523 536 542 0 17 -50 7 -60 -11 -5 -11 -19 -23 -31&#10;-26 -11 -4 -24 -18 -29 -31 -5 -13 -15 -24 -23 -24 -7 0 -20 -9 -30 -20 -9&#10;-11 -26 -20 -37 -20 -17 0 -44 -31 -45 -54 0 -4 -16 -13 -35 -20 -25 -8 -36&#10;-18 -38 -34 -2 -13 -14 -27 -28 -32 -13 -5 -24 -14 -24 -20 0 -5 -8 -10 -19&#10;-10 -26 0 -81 -58 -74 -78 5 -12 2 -14 -11 -9 -31 12 -100 -40 -90 -66 6 -16&#10;-40 -90 -49 -80 -4 3 -23 -9 -43 -26 -21 -19 -43 -30 -51 -27 -8 3 -17 6 -19&#10;6 -2 0 -4 5 -4 10 0 6 8 10 18 10 17 0 62 34 62 47 0 3 -11 -2 -25 -11 -13 -9&#10;-42 -16 -63 -16 -27 0 -47 -7 -64 -24 -14 -12 -33 -26 -43 -29 -12 -5 -14 -13&#10;-10 -28 7 -20 5 -21 -23 -16 -34 7 -45 -7 -30 -36 11 -22 -16 -35 -37 -17 -16&#10;13 -47 3 -85 -27 -51 -41 -179 -133 -186 -133 -4 0 -21 -10 -38 -23 -53 -40&#10;-180 -113 -321 -185 -52 -27 -314 -151 -340 -162 -11 -4 -42 -18 -70 -30 -27&#10;-12 -97 -37 -155 -55 -58 -18 -143 -45 -190 -60 -233 -73 -441 -121 -670 -155&#10;-41 -6 -100 -15 -130 -20 -174 -28 -541 -51 -735 -45 -180 5 -359 16 -430 25&#10;-38 5 -146 19 -240 31 -318 40 -664 119 -900 204 -521 188 -973 431 -1399 752&#10;-308 232 -682 621 -946 984 -122 168 -119 164 -174 254 -221 361 -273 471&#10;-448 940 -115 310 -199 690 -240 1095 -7 74 -13 262 -13 460 0 333 10 501 41&#10;695 8 50 19 115 24 145 12 79 37 199 66 315 25 102 29 114 63 220 10 33 28 94&#10;40 135 79 269 279 731 397 916 19 29 34 56 34 59 0 4 14 26 30 50 17 24 30 46&#10;30 50 0 3 16 31 35 61 19 30 35 57 35 60 0 9 63 99 72 102 4 2 8 8 8 13 0 12&#10;68 113 104 154 14 17 26 34 26 38 0 4 11 19 25 33 14 14 25 29 25 33 0 5 13&#10;24 30 42 16 19 30 39 30 45 0 6 7 17 15 24 18 15 19 27 3 33 -7 2 -5 3 5 2 9&#10;-2 17 0 17 4 0 5 26 35 58 67 32 32 71 79 87 104 15 24 37 51 48 60 11 9 18&#10;22 15 30 -3 10 -8 9 -21 -5 -14 -14 -20 -15 -32 -5 -12 10 -13 16 -4 26 30 36&#10;-9 4 -125 -103z"/>
<path d="M3150 4840 c-25 -25 -26 -61 -2 -88 16 -19 30 -21 172 -23 85 -1 210&#10;-1 277 0 119 1 123 2 139 26 18 28 13 64 -12 89 -13 14 -53 16 -285 16 -256 0&#10;-270 -1 -289 -20z"/>
<path d="M11555 4848 c-27 -15 -35 -28 -35 -60 0 -55 17 -58 316 -58 250 0&#10;272 1 287 18 22 25 21 75 -1 95 -16 15 -51 17 -283 17 -178 -1 -271 -4 -284&#10;-12z"/>
<path d="M2332 4171 c-178 -6 -184 -7 -203 -30 -31 -38 -34 -67 -10 -100 15&#10;-20 34 -33 59 -37 20 -4 666 -4 1434 -1 1092 5 1401 9 1417 18 42 27 54 94 21&#10;124 -17 15 -45 21 -133 26 -127 9 -2306 8 -2585 0z"/>
<path d="M10592 4170 l-344 -5 -24 -28 c-38 -45 -29 -88 26 -117 17 -9 423&#10;-11 2148 -10 l733 0 24 26 c14 15 25 37 25 49 0 30 -45 73 -84 80 -44 7 -2088&#10;11 -2504 5z"/>
<path d="M4398 3402 c-9 -2 -21 -16 -28 -32 -16 -39 -1 -64 48 -78 21 -6 49&#10;-23 63 -38 l24 -26 0 -728 c0 -816 7 -749 -75 -773 -42 -12 -45 -15 -42 -42 2&#10;-17 12 -39 23 -50 18 -18 35 -20 202 -23 168 -2 185 -1 215 18 26 16 32 26 32&#10;53 0 29 -4 34 -42 47 -83 30 -80 7 -85 531 -5 550 5 929 27 974 10 19 29 35&#10;56 45 54 20 74 37 74 64 0 53 -8 54 -251 58 -124 2 -233 2 -241 0z" fill="#d8a750"/>
<path d="M1546 3378 c-35 -49 -13 -80 64 -92 48 -8 77 -30 95 -73 13 -30 15&#10;-135 15 -703 0 -778 2 -760 -96 -775 -50 -7 -71 -35 -61 -78 13 -48 37 -51&#10;393 -55 l331 -4 31 27 c52 44 37 115 -25 115 -32 0 -80 51 -88 93 -4 18 -5&#10;339 -3 713 3 776 -6 705 94 749 58 26 71 47 49 81 l-15 24 -385 0 -384 0 -15&#10;-22z" fill="#d8a750"/>
<path d="M2460 3368 c-18 -29 -18 -34 -4 -50 9 -9 36 -20 59 -24 24 -3 57 -15&#10;75 -25 61 -38 60 -21 60 -769 0 -662 -1 -682 -20 -720 -14 -27 -29 -42 -48&#10;-46 -63 -14 -77 -22 -87 -48 -8 -22 -5 -31 17 -52 l25 -26 274 0 c272 0 273 0&#10;292 23 11 14 17 34 15 53 -3 27 -9 33 -48 45 -72 22 -91 34 -103 61 -15 33&#10;-17 810 -2 810 5 0 113 -102 240 -228 126 -125 259 -255 295 -288 36 -33 148&#10;-141 250 -239 240 -231 298 -279 315 -265 11 9 13 153 13 784 -1 810 -1 815&#10;43 877 10 15 33 32 51 39 18 7 41 20 51 28 20 17 23 62 5 80 -16 16 -600 17&#10;-629 2 -20 -11 -25 -45 -10 -68 4 -7 30 -20 56 -28 58 -17 90 -45 105 -89 11&#10;-34 27 -507 22 -637 -3 -57 -7 -78 -17 -78 -7 0 -15 3 -17 8 -1 4 -23 25 -48&#10;46 -55 48 -105 94 -285 261 -302 282 -554 509 -604 544 -45 32 -130 51 -232&#10;51 l-89 0 -20 -32z" fill="#d8a750"/>
<path d="M5672 3384 c-170 -37 -297 -103 -421 -220 -161 -151 -252 -334 -288&#10;-575 -14 -97 -14 -127 -4 -208 27 -206 83 -338 206 -492 168 -208 491 -332&#10;782 -300 161 17 358 83 466 154 65 44 67 58 17 120 -56 71 -128 177 -178 264&#10;-23 40 -47 75 -52 78 -5 3 -31 -11 -57 -31 -101 -78 -205 -106 -317 -85 -219&#10;41 -364 253 -329 481 32 204 190 340 397 340 99 0 195 -32 246 -81 22 -22 46&#10;-39 54 -39 8 0 45 42 82 93 37 50 101 127 141 169 95 100 95 115 4 177 -104&#10;71 -237 128 -374 160 -64 15 -297 12 -375 -5z" fill="#d8a750"/>
<path d="M8116 3374 c-28 -29 -33 -56 -13 -71 6 -5 39 -16 72 -23 136 -31 156&#10;-65 166 -280 10 -217 1 -1071 -12 -1152 -12 -77 -33 -101 -96 -113 -58 -11&#10;-73 -22 -73 -55 0 -35 31 -70 63 -71 12 0 146 0 297 0 300 0 291 -1 307 59 8&#10;32 -13 51 -73 66 -74 19 -89 47 -97 188 -11 189 -8 526 4 534 6 3 34 6 62 5&#10;62 -1 70 -9 127 -116 24 -44 69 -121 101 -171 33 -50 59 -95 59 -99 0 -4 -49&#10;40 -109 98 -70 69 -117 107 -131 107 -21 0 -20 -2 11 -57 137 -244 336 -460&#10;501 -543 145 -73 200 -85 393 -85 156 0 176 2 239 25 76 27 129 69 124 97 -2&#10;13 -17 20 -53 26 -171 28 -250 60 -368 148 -98 74 -247 225 -362 368 -55 69&#10;-117 144 -139 168 l-38 43 27 10 c14 5 35 10 45 10 11 0 44 9 75 21 82 31 163&#10;110 211 206 38 77 38 80 39 193 0 114 0 116 -39 193 -46 92 -121 166 -219 215&#10;-140 71 -232 81 -703 82 l-371 0 -27 -26z m822 -246 c59 -14 99 -40 135 -86&#10;37 -48 50 -102 45 -193 -3 -67 -7 -83 -33 -120 -19 -27 -50 -54 -84 -71 -51&#10;-27 -59 -28 -197 -28 l-144 0 0 249 c0 190 3 251 13 254 24 10 219 7 265 -5z" fill="#d8a750"/>
<path d="M9854 3376 c-27 -42 -15 -59 51 -77 34 -9 75 -24 93 -33 37 -19 85&#10;-90 126 -186 52 -122 87 -198 219 -471 36 -75 90 -187 120 -250 30 -63 88&#10;-184 130 -269 41 -85 104 -218 141 -295 89 -190 101 -210 122 -210 22 0 72 96&#10;252 485 22 47 67 144 102 215 34 72 91 193 127 270 36 77 85 182 109 234 24&#10;51 44 95 44 97 0 2 12 29 26 61 14 32 32 73 40 91 8 17 21 48 29 67 37 86 49&#10;107 82 135 19 17 60 37 95 47 69 19 89 45 70 88 l-12 25 -308 0 c-282 0 -310&#10;-2 -324 -17 -20 -24 -28 -47 -20 -60 4 -5 28 -18 54 -28 115 -43 111 -85 -34&#10;-415 -28 -63 -66 -149 -85 -190 -19 -41 -43 -95 -53 -120 -32 -80 -80 -170&#10;-91 -170 -9 0 -33 48 -78 155 -23 54 -44 101 -98 220 -33 72 -65 146 -73 165&#10;-7 19 -32 73 -54 120 -52 108 -56 169 -13 206 15 13 37 24 47 24 55 0 97 51&#10;73 89 -9 14 -60 16 -451 19 l-441 2 -17 -24z" fill="#d8a750"/>
<path d="M12575 3369 c-84 -20 -122 -34 -196 -70 -174 -86 -287 -201 -392&#10;-400 -145 -273 -123 -660 53 -919 247 -363 685 -490 1053 -304 243 123 397&#10;325 468 614 9 35 14 112 14 210 -1 181 -17 256 -90 407 -83 171 -214 300 -390&#10;384 -144 69 -230 89 -367 88 -62 -1 -131 -5 -153 -10z m255 -561 c59 -18 138&#10;-67 175 -110 77 -91 103 -252 55 -351 -29 -62 -75 -111 -96 -103 -12 4 -14 1&#10;-9 -13 7 -23 -25 -37 -52 -23 -12 7 -20 6 -28 -5 -10 -13 -16 -11 -43 16 -26&#10;26 -32 29 -40 16 -7 -14 -17 -14 -92 -1 -54 9 -90 11 -101 5 -26 -13 -49 -11&#10;-49 5 0 8 -7 17 -16 20 -12 4 -15 2 -10 -9 3 -8 4 -15 2 -15 -8 0 -46 39 -46&#10;47 0 6 -7 16 -15 23 -8 7 -15 19 -15 26 0 21 34 17 55 -6 20 -23 76 -40 120&#10;-39 21 1 24 3 10 6 -11 3 -22 8 -25 12 -3 4 -31 18 -62 30 -32 13 -62 29 -68&#10;36 -6 8 -17 12 -24 9 -54 -21 -57 156 -4 266 67 140 221 205 378 158z" fill="#d8a750"/>
<path d="M7257 3339 c-151 -42 -261 -103 -365 -203 -82 -78 -119 -129 -175&#10;-241 -74 -146 -92 -229 -91 -425 0 -137 4 -178 22 -244 24 -88 86 -216 137&#10;-286 48 -65 171 -181 235 -222 131 -83 336 -135 490 -124 365 25 646 277 737&#10;659 13 54 17 115 17 242 0 197 -15 267 -89 421 -93 192 -303 364 -517 424 -98&#10;27 -301 27 -401 -1z m292 -541 c154 -54 254 -211 230 -361 -10 -63 -51 -147&#10;-71 -147 -6 0 -4 10 5 24 17 25 18 116 2 181 -19 83 -98 186 -171 223 -48 24&#10;-139 38 -149 23 -3 -6 -21 -11 -38 -11 -30 0 -63 -19 -156 -88 -29 -22 -31&#10;-22 -31 -4 0 25 50 94 90 122 86 62 185 74 289 38z" fill="#d8a750"/>
<path d="M5377 970 c-61 -16 -113 -47 -151 -92 -111 -129 -45 -322 130 -377&#10;52 -17 176 -10 227 12 l37 16 0 105 c0 57 -3 111 -6 120 -5 13 -23 16 -98 16&#10;-97 0 -116 -7 -116 -46 0 -28 20 -44 64 -51 27 -4 38 -12 42 -29 14 -54 -15&#10;-73 -83 -54 -105 30 -162 135 -119 219 34 65 137 86 212 42 l37 -22 24 23 c38&#10;35 47 58 31 73 -40 37 -165 61 -231 45z" fill="#d8a750"/>
<path d="M7655 967 c-78 -31 -105 -66 -105 -137 0 -62 22 -95 84 -124 30 -14&#10;61 -26 68 -26 16 0 58 -36 58 -50 0 -5 -11 -17 -25 -26 -22 -14 -32 -15 -64&#10;-5 -21 6 -44 18 -51 26 -7 8 -16 15 -20 15 -11 0 -70 -81 -70 -96 0 -21 99&#10;-54 164 -54 51 0 70 5 107 29 54 34 74 74 66 137 -6 60 -41 95 -131 133 -70&#10;29 -93 54 -64 72 23 15 80 10 114 -12 l33 -20 27 41 c34 52 27 68 -42 92 -58&#10;19 -107 21 -149 5z" fill="#d8a750"/>
<path d="M4095 957 c-17 -13 -18 -27 -11 -225 3 -117 9 -219 12 -227 5 -13 29&#10;-15 153 -13 l146 3 0 50 0 50 -92 3 -93 3 0 172 c0 121 -4 177 -12 185 -16 16&#10;-80 15 -103 -1z" fill="#d8a750"/>
<path d="M4643 954 c-4 -10 -8 -118 -8 -239 l0 -220 150 0 150 0 0 45 0 45&#10;-90 5 -90 5 0 40 0 40 67 3 c62 3 68 5 74 26 3 13 4 35 2 47 -3 22 -8 24 -69&#10;27 l-67 3 -5 37 c-4 23 -2 39 6 44 7 4 46 8 88 8 l76 0 7 41 c4 23 5 44 2 46&#10;-2 2 -67 7 -145 10 -132 6 -141 5 -148 -13z" fill="#d8a750"/>
<path d="M6074 962 c-6 -4 -24 -34 -39 -67 -15 -33 -38 -82 -50 -110 -39 -86&#10;-115 -274 -115 -285 0 -7 19 -10 53 -8 49 3 53 5 72 40 l20 38 102 0 103 0 17&#10;-37 c17 -35 21 -38 67 -41 27 -2 53 1 57 5 9 9 -8 57 -88 243 -62 146 -95 214&#10;-108 222 -5 4 -26 8 -45 8 -19 0 -40 -4 -46 -8z" fill="#d8a750"/>
<path d="M8125 960 c-8 -13 -8 -437 0 -450 4 -6 67 -10 156 -10 l149 0 0 45 0&#10;44 -97 3 -98 3 0 40 0 40 67 3 c63 3 68 5 74 27 3 14 3 36 0 50 -6 22 -11 25&#10;-55 25 -72 0 -81 6 -81 51 l0 38 93 3 92 3 0 40 0 40 -50 7 c-79 10 -243 9&#10;-250 -2z" fill="#d8a750"/>
<path d="M8722 963 l-42 -4 2 -232 3 -232 50 0 50 0 5 65 5 65 34 0 c31 0 36&#10;-5 70 -65 l37 -65 63 -3 c75 -4 75 -5 5 100 l-46 69 35 38 c75 84 52 213 -46&#10;250 -32 12 -164 21 -225 14z m192 -115 c39 -56 -2 -118 -78 -118 -25 0 -47 4&#10;-50 9 -3 5 -3 36 0 70 l7 61 53 0 c43 0 56 -4 68 -22z" fill="#d8a750"/>
<path d="M10005 962 c-22 -2 -43 -9 -47 -15 -9 -14 -9 -234 1 -362 l6 -90 45&#10;0 45 0 3 229 c1 126 -1 232 -5 235 -5 4 -26 5 -48 3z" fill="#d8a750"/>
<path d="M10468 956 c-57 -21 -84 -41 -116 -88 -66 -97 -58 -225 20 -306 83&#10;-85 261 -96 349 -22 l33 27 -20 26 c-27 37 -54 42 -100 18 -21 -12 -52 -21&#10;-69 -21 -70 0 -145 71 -145 137 0 117 119 183 214 118 20 -14 38 -25 40 -25 2&#10;0 21 16 42 35 44 39 41 56 -14 88 -42 24 -183 33 -234 13z" fill="#d8a750"/>
<path d="M10980 951 c-6 -12 -10 -105 -10 -234 l0 -215 141 -7 c77 -4 144 -3&#10;149 1 15 17 21 82 9 90 -7 4 -47 7 -90 8 -88 1 -104 10 -94 54 6 28 11 31 58&#10;37 81 10 87 13 87 45 0 36 -23 50 -85 50 -51 0 -59 10 -47 55 8 29 10 30 82&#10;35 l74 5 10 34 c15 53 -5 61 -151 61 -111 0 -123 -2 -133 -19z" fill="#d8a750"/>
<path d="M11603 959 c-35 -10 -80 -58 -89 -95 -11 -44 6 -96 43 -131 19 -18&#10;40 -33 48 -33 26 0 106 -40 112 -56 8 -21 -30 -54 -61 -54 -12 0 -38 9 -59 20&#10;-20 11 -41 20 -47 20 -10 0 -50 -71 -50 -89 0 -18 109 -51 168 -51 172 1 231&#10;173 92 268 -19 12 -45 25 -59 28 -57 11 -76 20 -79 39 -9 43 60 59 115 26 l31&#10;-20 27 41 c25 38 26 41 9 59 -32 35 -129 49 -201 28z" fill="#d8a750"/>
<path d="M6620 938 c-1 -13 -1 -115 -1 -228 l0 -205 83 -8 c46 -4 115 -6 153&#10;-5 l70 3 5 41 c3 23 4 46 2 53 -2 7 -37 11 -103 11 l-99 0 0 180 0 180 -55 0&#10;c-50 0 -55 -2 -55 -22z" fill="#d8a750"/>
<path d="M9240 951 c0 -10 21 -59 63 -151 14 -30 43 -100 65 -155 66 -164 59&#10;-155 108 -155 55 0 55 -1 155 242 107 256 103 230 34 226 l-57 -3 -60 -140&#10;c-33 -77 -62 -142 -64 -144 -9 -10 -33 38 -78 160 l-48 129 -59 0 c-33 0 -59&#10;-4 -59 -9z" fill="#d8a750"/>
</g>
</svg>