<svg width="1243" height="367" viewBox="0 0 1243 367" fill="none" xmlns="http://www.w3.org/2000/svg">
<g clip-path="url(#clip0_86_31)">
<path d="M272.795 -827.66C265.695 -821.16 260.295 -815.46 260.595 -814.76C260.895 -813.96 260.495 -813.66 259.695 -813.96C258.695 -814.36 258.495 -813.86 258.895 -812.16C259.195 -810.46 259.095 -810.26 258.395 -811.26C257.195 -812.96 256.495 -812.36 251.695 -805.86C249.995 -803.66 247.095 -800.26 245.195 -798.36C243.195 -796.46 240.495 -793.26 239.195 -791.36C237.895 -789.46 236.495 -787.66 236.195 -787.36C232.495 -784.16 215.195 -758.66 206.695 -743.86C200.295 -732.66 182.795 -698.56 179.495 -690.86C164.395 -655.26 151.295 -612.56 145.295 -578.86C144.695 -575.56 143.295 -567.66 142.095 -561.36C137.695 -537.36 136.595 -519.76 136.795 -476.36C136.895 -441.96 138.695 -424.66 146.395 -385.36C151.795 -357.26 153.195 -351.56 160.095 -330.86C168.295 -306.16 169.295 -303.56 175.695 -289.36C194.195 -248.36 215.495 -213.66 242.195 -180.86C245.695 -176.46 248.895 -172.66 249.195 -172.36C249.495 -172.06 254.195 -166.96 259.695 -160.86C272.995 -146.26 286.695 -132.46 297.695 -122.76C302.695 -118.46 306.895 -114.66 307.195 -114.26C308.695 -112.66 328.595 -97.36 341.395 -88.06C353.595 -79.26 373.395 -66.36 374.795 -66.36C375.095 -66.36 376.895 -65.26 378.995 -64.06C392.895 -55.26 425.995 -39.06 443.695 -32.46C446.995 -31.16 450.795 -29.66 452.195 -29.16C475.895 -19.26 492.995 -14.46 530.195 -6.96C554.595 -2.06 572.495 0.440004 596.795 2.14C647.995 5.74 703.995 2.04 749.195 -8.06C755.495 -9.46 762.295 -10.96 764.195 -11.36C773.695 -13.36 795.495 -19.86 810.695 -25.16C831.095 -32.26 843.495 -37.46 860.195 -45.96C885.795 -58.96 902.295 -68.56 922.695 -82.56C943.195 -96.56 950.695 -102.36 967.595 -117.36C982.795 -130.76 1021.19 -169.66 1021.19 -171.56C1021.19 -173.26 1016.19 -172.26 1015.19 -170.46C1014.69 -169.36 1013.29 -168.16 1012.09 -167.86C1010.99 -167.46 1009.69 -166.06 1009.19 -164.76C1008.69 -163.46 1007.69 -162.36 1006.89 -162.36C1006.19 -162.36 1004.89 -161.46 1003.89 -160.36C1002.99 -159.26 1001.29 -158.36 1000.19 -158.36C998.495 -158.36 995.795 -155.26 995.695 -152.96C995.695 -152.56 994.095 -151.66 992.195 -150.96C989.695 -150.16 988.595 -149.16 988.395 -147.56C988.195 -146.26 986.995 -144.86 985.595 -144.36C984.295 -143.86 983.195 -142.96 983.195 -142.36C983.195 -141.86 982.395 -141.36 981.295 -141.36C978.695 -141.36 973.195 -135.56 973.895 -133.56C974.395 -132.36 974.095 -132.16 972.795 -132.66C969.695 -133.86 962.795 -128.66 963.795 -126.06C964.395 -124.46 959.795 -117.06 958.895 -118.06C958.495 -118.36 956.595 -117.16 954.595 -115.46C952.495 -113.56 950.295 -112.46 949.495 -112.76C948.695 -113.06 947.795 -113.36 947.595 -113.36C947.395 -113.36 947.195 -113.86 947.195 -114.36C947.195 -114.96 947.995 -115.36 948.995 -115.36C950.695 -115.36 955.195 -118.76 955.195 -120.06C955.195 -120.36 954.095 -119.86 952.695 -118.96C951.395 -118.06 948.495 -117.36 946.395 -117.36C943.695 -117.36 941.695 -116.66 939.995 -114.96C938.595 -113.76 936.695 -112.36 935.695 -112.06C934.495 -111.56 934.295 -110.76 934.695 -109.26C935.395 -107.26 935.195 -107.16 932.395 -107.66C928.995 -108.36 927.895 -106.96 929.395 -104.06C930.495 -101.86 927.795 -100.56 925.695 -102.36C924.095 -103.66 920.995 -102.66 917.195 -99.66C912.095 -95.56 899.295 -86.36 898.595 -86.36C898.195 -86.36 896.495 -85.36 894.795 -84.06C889.495 -80.06 876.795 -72.76 862.695 -65.56C857.495 -62.86 831.295 -50.46 828.695 -49.36C827.595 -48.96 824.495 -47.56 821.695 -46.36C818.995 -45.16 811.995 -42.66 806.195 -40.86C800.395 -39.06 791.895 -36.36 787.195 -34.86C763.895 -27.56 743.095 -22.76 720.195 -19.36C716.095 -18.76 710.195 -17.86 707.195 -17.36C689.795 -14.56 653.095 -12.26 633.695 -12.86C615.695 -13.36 597.795 -14.46 590.695 -15.36C586.895 -15.86 576.095 -17.26 566.695 -18.46C534.895 -22.46 500.295 -30.36 476.695 -38.86C424.595 -57.66 379.395 -81.96 336.795 -114.06C305.995 -137.26 268.595 -176.16 242.195 -212.46C229.995 -229.26 230.295 -228.86 224.795 -237.86C202.695 -273.96 197.495 -284.96 179.995 -331.86C168.495 -362.86 160.095 -400.86 155.995 -441.36C155.295 -448.76 154.695 -467.56 154.695 -487.36C154.695 -520.66 155.695 -537.46 158.795 -556.86C159.595 -561.86 160.695 -568.36 161.195 -571.36C162.395 -579.26 164.895 -591.26 167.795 -602.86C170.295 -613.06 170.695 -614.26 174.095 -624.86C175.095 -628.16 176.895 -634.26 178.095 -638.36C185.995 -665.26 205.995 -711.46 217.795 -729.96C219.695 -732.86 221.195 -735.56 221.195 -735.86C221.195 -736.26 222.595 -738.46 224.195 -740.86C225.895 -743.26 227.195 -745.46 227.195 -745.86C227.195 -746.16 228.795 -748.96 230.695 -751.96C232.595 -754.96 234.195 -757.66 234.195 -757.96C234.195 -758.86 240.495 -767.86 241.395 -768.16C241.795 -768.36 242.195 -768.96 242.195 -769.46C242.195 -770.66 248.995 -780.76 252.595 -784.86C253.995 -786.56 255.195 -788.26 255.195 -788.66C255.195 -789.06 256.295 -790.56 257.695 -791.96C259.095 -793.36 260.195 -794.86 260.195 -795.26C260.195 -795.76 261.495 -797.66 263.195 -799.46C264.795 -801.36 266.195 -803.36 266.195 -803.96C266.195 -804.56 266.895 -805.66 267.695 -806.36C269.495 -807.86 269.595 -809.06 267.995 -809.66C267.295 -809.86 267.495 -809.96 268.495 -809.86C269.395 -809.66 270.195 -809.86 270.195 -810.26C270.195 -810.76 272.795 -813.76 275.995 -816.96C279.195 -820.16 283.095 -824.86 284.695 -827.36C286.195 -829.76 288.395 -832.46 289.495 -833.36C290.595 -834.26 291.295 -835.56 290.995 -836.36C290.695 -837.36 290.195 -837.26 288.895 -835.86C287.495 -834.46 286.895 -834.36 285.695 -835.36C284.495 -836.36 284.395 -836.96 285.295 -837.96C288.295 -841.56 284.395 -838.36 272.795 -827.66Z" fill="#0A1F44"/>
<path d="M26.7946 45.84C23.2946 50.74 25.4946 53.84 33.1946 55.04C37.9946 55.84 40.8946 58.04 42.6946 62.34C43.9946 65.34 44.1946 75.84 44.1946 132.64C44.1946 210.44 44.3946 208.64 34.5946 210.14C29.5946 210.84 27.4946 213.64 28.4946 217.94C29.7946 222.74 32.1946 223.04 67.7946 223.44L100.895 223.84L103.995 221.14C109.195 216.74 107.695 209.64 101.495 209.64C98.2946 209.64 93.4946 204.54 92.6946 200.34C92.2946 198.54 92.1946 166.44 92.3946 129.04C92.6946 51.44 91.7946 58.54 101.795 54.14C107.595 51.54 108.895 49.44 106.695 46.04L105.195 43.64H66.6946H28.2946L26.7946 45.84Z" fill="#D8A750"/>
<path d="M118.194 46.84C116.394 49.74 116.394 50.24 117.794 51.84C118.694 52.74 121.394 53.84 123.694 54.24C126.094 54.54 129.394 55.74 131.194 56.74C137.294 60.54 137.194 58.84 137.194 133.64C137.194 199.84 137.094 201.84 135.194 205.64C133.794 208.34 132.294 209.84 130.394 210.24C124.094 211.64 122.694 212.44 121.694 215.04C120.894 217.24 121.194 218.14 123.394 220.24L125.894 222.84H153.294C180.494 222.84 180.594 222.84 182.494 220.54C183.594 219.14 184.194 217.14 183.994 215.24C183.694 212.54 183.094 211.94 179.194 210.74C171.994 208.54 170.094 207.34 168.894 204.64C167.394 201.34 167.194 123.64 168.694 123.64C169.194 123.64 179.994 133.84 192.694 146.44C205.294 158.94 218.594 171.94 222.194 175.24C225.794 178.54 236.994 189.34 247.194 199.14C271.194 222.24 276.994 227.04 278.694 225.64C279.794 224.74 279.994 210.34 279.994 147.24C279.894 66.24 279.894 65.74 284.294 59.54C285.294 58.04 287.594 56.34 289.394 55.64C291.194 54.94 293.494 53.64 294.494 52.84C296.494 51.14 296.794 46.64 294.994 44.84C293.394 43.24 234.994 43.14 232.094 44.64C230.094 45.74 229.594 49.14 231.094 51.44C231.494 52.14 234.094 53.44 236.694 54.24C242.494 55.94 245.694 58.74 247.194 63.14C248.294 66.54 249.894 113.84 249.394 126.84C249.094 132.54 248.694 134.64 247.694 134.64C246.994 134.64 246.194 134.34 245.994 133.84C245.894 133.44 243.694 131.34 241.194 129.24C235.694 124.44 230.694 119.84 212.694 103.14C182.494 74.94 157.294 52.24 152.294 48.74C147.794 45.54 139.294 43.64 129.094 43.64H120.194L118.194 46.84Z" fill="#D8A750"/>
<path d="M383.395 45.24C366.395 48.94 353.695 55.54 341.295 67.24C325.195 82.34 316.095 100.64 312.495 124.74C311.095 134.44 311.095 137.44 312.095 145.54C314.795 166.14 320.395 179.34 332.695 194.74C349.495 215.54 381.795 227.94 410.895 224.74C426.995 223.04 446.695 216.44 457.495 209.34C463.995 204.94 464.195 203.54 459.195 197.34C453.595 190.24 446.395 179.64 441.395 170.94C439.095 166.94 436.695 163.44 436.195 163.14C435.695 162.84 433.095 164.24 430.495 166.24C420.395 174.04 409.995 176.84 398.795 174.74C376.895 170.64 362.395 149.44 365.895 126.64C369.095 106.24 384.895 92.64 405.595 92.64C415.495 92.64 425.095 95.84 430.195 100.74C432.395 102.94 434.795 104.64 435.595 104.64C436.395 104.64 440.095 100.44 443.795 95.34C447.495 90.34 453.895 82.64 457.895 78.44C467.395 68.44 467.395 66.94 458.295 60.74C447.895 53.64 434.595 47.94 420.895 44.74C414.495 43.24 391.195 43.54 383.395 45.24Z" fill="#D8A750"/>
<path d="M627.794 46.24C624.994 49.14 624.494 51.84 626.494 53.34C627.094 53.84 630.394 54.94 633.694 55.64C647.294 58.74 649.294 62.14 650.294 83.64C651.294 105.34 650.394 190.74 649.094 198.84C647.894 206.54 645.794 208.94 639.494 210.14C633.694 211.24 632.194 212.34 632.194 215.64C632.194 219.14 635.294 222.64 638.494 222.74C639.694 222.74 653.094 222.74 668.194 222.74C698.194 222.74 697.294 222.84 698.894 216.84C699.694 213.64 697.594 211.74 691.594 210.24C684.194 208.34 682.694 205.54 681.894 191.44C680.794 172.54 681.094 138.84 682.294 138.04C682.894 137.74 685.694 137.44 688.494 137.54C694.694 137.64 695.494 138.44 701.194 149.14C703.594 153.54 708.094 161.24 711.294 166.24C714.594 171.24 717.194 175.74 717.194 176.14C717.194 176.54 712.294 172.14 706.294 166.34C699.294 159.44 694.594 155.64 693.194 155.64C691.094 155.64 691.194 155.84 694.294 161.34C707.994 185.74 727.894 207.34 744.394 215.64C758.894 222.94 764.394 224.14 783.694 224.14C799.294 224.14 801.294 223.94 807.594 221.64C815.194 218.94 820.494 214.74 819.994 211.94C819.794 210.64 818.294 209.94 814.694 209.34C797.594 206.54 789.694 203.34 777.894 194.54C768.094 187.14 753.194 172.04 741.694 157.74C736.194 150.84 729.994 143.34 727.794 140.94L723.994 136.64L726.694 135.64C728.094 135.14 730.194 134.64 731.194 134.64C732.294 134.64 735.594 133.74 738.694 132.54C746.894 129.44 754.994 121.54 759.794 111.94C763.594 104.24 763.594 103.94 763.694 92.64C763.694 81.24 763.694 81.04 759.794 73.34C755.194 64.14 747.694 56.74 737.894 51.84C723.894 44.74 714.694 43.74 667.594 43.64H630.494L627.794 46.24ZM709.994 70.84C715.894 72.24 719.894 74.84 723.494 79.44C727.194 84.24 728.494 89.64 727.994 98.74C727.694 105.44 727.294 107.04 724.694 110.74C722.794 113.44 719.694 116.14 716.294 117.84C711.194 120.54 710.394 120.64 696.594 120.64H682.194V95.74C682.194 76.74 682.494 70.64 683.494 70.34C685.894 69.34 705.394 69.64 709.994 70.84Z" fill="#D8A750"/>
<path d="M801.595 46.04C798.895 50.24 800.095 51.94 806.695 53.74C810.095 54.64 814.195 56.14 815.995 57.04C819.695 58.94 824.495 66.04 828.595 75.64C833.795 87.84 837.295 95.44 850.495 122.74C854.095 130.24 859.495 141.44 862.495 147.74C865.495 154.04 871.295 166.14 875.495 174.64C879.595 183.14 885.895 196.44 889.595 204.14C898.495 223.14 899.695 225.14 901.795 225.14C903.995 225.14 908.995 215.54 926.995 176.64C929.195 171.94 933.695 162.24 937.195 155.14C940.595 147.94 946.295 135.84 949.895 128.14C953.495 120.44 958.395 109.94 960.795 104.74C963.195 99.64 965.195 95.24 965.195 95.04C965.195 94.84 966.395 92.14 967.795 88.94C969.195 85.74 970.995 81.64 971.795 79.84C972.595 78.14 973.895 75.04 974.695 73.14C978.395 64.54 979.595 62.44 982.895 59.64C984.795 57.94 988.895 55.94 992.395 54.94C999.295 53.04 1001.29 50.44 999.395 46.14L998.195 43.64H967.395C939.195 43.64 936.395 43.84 934.995 45.34C932.995 47.74 932.195 50.04 932.995 51.34C933.395 51.84 935.795 53.14 938.395 54.14C949.895 58.44 949.495 62.64 934.995 95.64C932.195 101.94 928.395 110.54 926.495 114.64C924.595 118.74 922.195 124.14 921.195 126.64C917.995 134.64 913.195 143.64 912.095 143.64C911.195 143.64 908.795 138.84 904.295 128.14C901.995 122.74 899.895 118.04 894.495 106.14C891.195 98.94 887.995 91.54 887.195 89.64C886.495 87.74 883.995 82.34 881.795 77.64C876.595 66.84 876.195 60.74 880.495 57.04C881.995 55.74 884.195 54.64 885.195 54.64C890.695 54.64 894.895 49.54 892.495 45.74C891.595 44.34 886.495 44.14 847.395 43.84L803.295 43.64L801.595 46.04Z" fill="#D8A750"/>
<path d="M1073.69 46.74C1065.29 48.74 1061.49 50.14 1054.09 53.74C1036.69 62.34 1025.39 73.84 1014.89 93.74C1000.39 121.04 1002.59 159.74 1020.19 185.64C1044.89 221.94 1088.69 234.64 1125.49 216.04C1149.79 203.74 1165.19 183.54 1172.29 154.64C1173.19 151.14 1173.69 143.44 1173.69 133.64C1173.59 115.54 1171.99 108.04 1164.69 92.94C1156.39 75.84 1143.29 62.94 1125.69 54.54C1111.29 47.64 1102.69 45.64 1088.99 45.74C1082.79 45.84 1075.89 46.24 1073.69 46.74ZM1099.19 102.84C1105.09 104.64 1112.99 109.54 1116.69 113.84C1124.39 122.94 1126.99 139.04 1122.19 148.94C1119.29 155.14 1114.69 160.04 1112.59 159.24C1111.39 158.84 1111.19 159.14 1111.69 160.54C1112.39 162.84 1109.19 164.24 1106.49 162.84C1105.29 162.14 1104.49 162.24 1103.69 163.34C1102.69 164.64 1102.09 164.44 1099.39 161.74C1096.79 159.14 1096.19 158.84 1095.39 160.14C1094.69 161.54 1093.69 161.54 1086.19 160.24C1080.79 159.34 1077.19 159.14 1076.09 159.74C1073.49 161.04 1071.19 160.84 1071.19 159.24C1071.19 158.44 1070.49 157.54 1069.59 157.24C1068.39 156.84 1068.09 157.04 1068.59 158.14C1068.89 158.94 1068.99 159.64 1068.79 159.64C1067.99 159.64 1064.19 155.74 1064.19 154.94C1064.19 154.34 1063.49 153.34 1062.69 152.64C1061.89 151.94 1061.19 150.74 1061.19 150.04C1061.19 147.94 1064.59 148.34 1066.69 150.64C1068.69 152.94 1074.29 154.64 1078.69 154.54C1080.79 154.44 1081.09 154.24 1079.69 153.94C1078.59 153.64 1077.49 153.14 1077.19 152.74C1076.89 152.34 1074.09 150.94 1070.99 149.74C1067.79 148.44 1064.79 146.84 1064.19 146.14C1063.59 145.34 1062.49 144.94 1061.79 145.24C1056.39 147.34 1056.09 129.64 1061.39 118.64C1068.09 104.64 1083.49 98.14 1099.19 102.84Z" fill="#D8A750"/>
<path d="M541.895 49.74C526.795 53.94 515.795 60.04 505.395 70.04C497.195 77.84 493.495 82.94 487.895 94.14C480.495 108.74 478.695 117.04 478.795 136.64C478.795 150.34 479.195 154.44 480.995 161.04C483.395 169.84 489.595 182.64 494.695 189.64C499.495 196.14 511.795 207.74 518.195 211.84C531.295 220.14 551.795 225.34 567.195 224.24C603.695 221.74 631.795 196.54 640.895 158.34C642.195 152.94 642.595 146.84 642.595 134.14C642.595 114.44 641.095 107.44 633.695 92.04C624.395 72.84 603.395 55.64 581.995 49.64C572.195 46.94 551.895 46.94 541.895 49.74ZM571.095 103.84C586.495 109.24 596.495 124.94 594.095 139.94C593.095 146.24 588.995 154.64 586.995 154.64C586.395 154.64 586.595 153.64 587.495 152.24C589.195 149.74 589.295 140.64 587.695 134.14C585.795 125.84 577.895 115.54 570.595 111.84C565.795 109.44 556.695 108.04 555.695 109.54C555.395 110.14 553.595 110.64 551.895 110.64C548.895 110.64 545.595 112.54 536.295 119.44C533.395 121.64 533.195 121.64 533.195 119.84C533.195 117.34 538.195 110.44 542.195 107.64C550.795 101.44 560.695 100.24 571.095 103.84Z" fill="#D8A750"/>
<path d="M321.895 286.64C315.795 288.24 310.595 291.34 306.795 295.84C295.695 308.74 302.295 328.04 319.795 333.54C324.995 335.24 337.395 334.54 342.495 332.34L346.195 330.74V320.24C346.195 314.54 345.895 309.14 345.595 308.24C345.095 306.94 343.295 306.64 335.795 306.64C326.095 306.64 324.195 307.34 324.195 311.24C324.195 314.04 326.195 315.64 330.595 316.34C333.295 316.74 334.395 317.54 334.795 319.24C336.195 324.64 333.295 326.54 326.495 324.64C315.995 321.64 310.295 311.14 314.595 302.74C317.995 296.24 328.295 294.14 335.795 298.54L339.495 300.74L341.895 298.44C345.695 294.94 346.595 292.64 344.995 291.14C340.995 287.44 328.495 285.04 321.895 286.64Z" fill="#D8A750"/>
<path d="M549.695 286.94C541.895 290.04 539.195 293.54 539.195 300.64C539.195 306.84 541.395 310.14 547.595 313.04C550.595 314.44 553.695 315.64 554.395 315.64C555.995 315.64 560.195 319.24 560.195 320.64C560.195 321.14 559.095 322.34 557.695 323.24C555.495 324.64 554.495 324.74 551.295 323.74C549.195 323.14 546.895 321.94 546.195 321.14C545.495 320.34 544.595 319.64 544.195 319.64C543.095 319.64 537.195 327.74 537.195 329.24C537.195 331.34 547.095 334.64 553.595 334.64C558.695 334.64 560.595 334.14 564.295 331.74C569.695 328.34 571.695 324.34 570.895 318.04C570.295 312.04 566.795 308.54 557.795 304.74C550.795 301.84 548.495 299.34 551.395 297.54C553.695 296.04 559.395 296.54 562.795 298.74L566.095 300.74L568.795 296.64C572.195 291.44 571.495 289.84 564.595 287.44C558.795 285.54 553.895 285.34 549.695 286.94Z" fill="#D8A750"/>
<path d="M193.695 287.94C191.995 289.24 191.895 290.64 192.595 310.44C192.895 322.14 193.495 332.34 193.795 333.14C194.295 334.44 196.695 334.64 209.095 334.44L223.695 334.14V329.14V324.14L214.495 323.84L205.195 323.54V306.34C205.195 294.24 204.795 288.64 203.995 287.84C202.395 286.24 195.995 286.34 193.695 287.94Z" fill="#D8A750"/>
<path d="M248.495 288.24C248.095 289.24 247.695 300.04 247.695 312.14V334.14H262.695H277.695V329.64V325.14L268.695 324.64L259.695 324.14V320.14V316.14L266.395 315.84C272.595 315.54 273.195 315.34 273.795 313.24C274.095 311.94 274.195 309.74 273.995 308.54C273.695 306.34 273.195 306.14 267.095 305.84L260.395 305.54L259.895 301.84C259.495 299.54 259.695 297.94 260.495 297.44C261.195 297.04 265.095 296.64 269.295 296.64H276.895L277.595 292.54C277.995 290.24 278.095 288.14 277.795 287.94C277.595 287.74 271.095 287.24 263.295 286.94C250.095 286.34 249.195 286.44 248.495 288.24Z" fill="#D8A750"/>
<path d="M391.595 287.44C390.995 287.84 389.195 290.84 387.695 294.14C386.195 297.44 383.895 302.34 382.695 305.14C378.795 313.74 371.195 332.54 371.195 333.64C371.195 334.34 373.095 334.64 376.495 334.44C381.395 334.14 381.795 333.94 383.695 330.44L385.695 326.64H395.895H406.195L407.895 330.34C409.595 333.84 409.995 334.14 414.595 334.44C417.295 334.64 419.895 334.34 420.295 333.94C421.195 333.04 419.495 328.24 411.495 309.64C405.295 295.04 401.995 288.24 400.695 287.44C400.195 287.04 398.095 286.64 396.195 286.64C394.295 286.64 392.195 287.04 391.595 287.44Z" fill="#D8A750"/>
<path d="M596.695 287.64C595.895 288.94 595.895 331.34 596.695 332.64C597.095 333.24 603.395 333.64 612.295 333.64H627.195V329.14V324.74L617.495 324.44L607.695 324.14V320.14V316.14L614.395 315.84C620.695 315.54 621.195 315.34 621.795 313.14C622.095 311.74 622.095 309.54 621.795 308.14C621.195 305.94 620.695 305.64 616.295 305.64C609.095 305.64 608.195 305.04 608.195 300.54V296.74L617.495 296.44L626.695 296.14V292.14V288.14L621.695 287.44C613.795 286.44 597.395 286.54 596.695 287.64Z" fill="#D8A750"/>
<path d="M656.395 287.34L652.195 287.74L652.395 310.94L652.695 334.14H657.695H662.695L663.195 327.64L663.695 321.14H667.095C670.195 321.14 670.695 321.64 674.095 327.64L677.795 334.14L684.095 334.44C691.595 334.84 691.595 334.94 684.595 324.44L679.995 317.54L683.495 313.74C690.995 305.34 688.695 292.44 678.895 288.74C675.695 287.54 662.495 286.64 656.395 287.34ZM675.595 298.84C679.495 304.44 675.395 310.64 667.795 310.64C665.295 310.64 663.095 310.24 662.795 309.74C662.495 309.24 662.495 306.14 662.795 302.74L663.495 296.64H668.795C673.095 296.64 674.395 297.04 675.595 298.84Z" fill="#D8A750"/>
<path d="M784.695 287.44C782.495 287.64 780.395 288.34 779.995 288.94C779.095 290.34 779.095 312.34 780.095 325.14L780.695 334.14H785.195H789.695L789.995 311.24C790.095 298.64 789.895 288.04 789.495 287.74C788.995 287.34 786.895 287.24 784.695 287.44Z" fill="#D8A750"/>
<path d="M830.995 288.04C825.295 290.14 822.595 292.14 819.395 296.84C812.795 306.54 813.595 319.34 821.395 327.44C829.695 335.94 847.495 337.04 856.295 329.64L859.595 326.94L857.595 324.34C854.895 320.64 852.195 320.14 847.595 322.54C845.495 323.74 842.395 324.64 840.695 324.64C833.695 324.64 826.195 317.54 826.195 310.94C826.195 299.24 838.095 292.64 847.595 299.14C849.595 300.54 851.395 301.64 851.595 301.64C851.795 301.64 853.695 300.04 855.795 298.14C860.195 294.24 859.895 292.54 854.395 289.34C850.195 286.94 836.095 286.04 830.995 288.04Z" fill="#D8A750"/>
<path d="M882.195 288.54C881.595 289.74 881.195 299.04 881.195 311.94V333.44L895.295 334.14C902.995 334.54 909.695 334.44 910.195 334.04C911.695 332.34 912.295 325.84 911.095 325.04C910.395 324.64 906.395 324.34 902.095 324.24C893.295 324.14 891.695 323.24 892.695 318.84C893.295 316.04 893.795 315.74 898.495 315.14C906.595 314.14 907.195 313.84 907.195 310.64C907.195 307.04 904.895 305.64 898.695 305.64C893.595 305.64 892.795 304.64 893.995 300.14C894.795 297.24 894.995 297.14 902.195 296.64L909.595 296.14L910.595 292.74C912.095 287.44 910.095 286.64 895.495 286.64C884.395 286.64 883.195 286.84 882.195 288.54Z" fill="#D8A750"/>
<path d="M944.495 287.74C940.995 288.74 936.495 293.54 935.595 297.24C934.495 301.64 936.195 306.84 939.895 310.34C941.795 312.14 943.895 313.64 944.695 313.64C947.295 313.64 955.295 317.64 955.895 319.24C956.695 321.34 952.895 324.64 949.795 324.64C948.595 324.64 945.995 323.74 943.895 322.64C941.895 321.54 939.795 320.64 939.195 320.64C938.195 320.64 934.195 327.74 934.195 329.54C934.195 331.34 945.095 334.64 950.995 334.64C968.195 334.54 974.095 317.34 960.195 307.84C958.295 306.64 955.695 305.34 954.295 305.04C948.595 303.94 946.695 303.04 946.395 301.14C945.495 296.84 952.395 295.24 957.895 298.54L960.995 300.54L963.695 296.44C966.195 292.64 966.295 292.34 964.595 290.54C961.395 287.04 951.695 285.64 944.495 287.74Z" fill="#D8A750"/>
<path d="M446.195 289.84C446.095 291.14 446.095 301.34 446.095 312.64V333.14L454.395 333.94C458.995 334.34 465.895 334.54 469.695 334.44L476.695 334.14L477.195 330.04C477.495 327.74 477.595 325.44 477.395 324.74C477.195 324.04 473.695 323.64 467.095 323.64H457.195V305.64V287.64H451.695C446.695 287.64 446.195 287.84 446.195 289.84Z" fill="#D8A750"/>
<path d="M708.195 288.54C708.195 289.54 710.295 294.44 714.495 303.64C715.895 306.64 718.795 313.64 720.995 319.14C727.595 335.54 726.895 334.64 731.795 334.64C737.295 334.64 737.295 334.74 747.295 310.44C757.995 284.84 757.595 287.44 750.695 287.84L744.995 288.14L738.995 302.14C735.695 309.84 732.795 316.34 732.595 316.54C731.695 317.54 729.295 312.74 724.795 300.54L719.995 287.64H714.095C710.795 287.64 708.195 288.04 708.195 288.54Z" fill="#D8A750"/>
</g>
<defs>
<clipPath id="clip0_86_31">
<rect width="1255.83" height="366.96" fill="white"/>
</clipPath>
</defs>
</svg>
